<?xml version="1.0" encoding="utf-8"?>
<!-- Generator: Adobe Illustrator 18.0.0, SVG Export Plug-In . SVG Version: 6.00 Build 0)  -->
<!DOCTYPE svg PUBLIC "-//W3C//DTD SVG 1.1//EN" "http://www.w3.org/Graphics/SVG/1.1/DTD/svg11.dtd">
<svg version="1.1" id="Layer_1" xmlns="http://www.w3.org/2000/svg" xmlns:xlink="http://www.w3.org/1999/xlink" x="0px" y="0px"
	 viewBox="1.6 0 186.9 98.8" enable-background="new 1.6 0 186.9 98.8" xml:space="preserve">
<path fill="none" d="M150.5,0h-9.3c2,2,3.8,3.7,5.3,5.1C147.8,3.4,149.2,2,150.5,0z"/>
<path fill="#FFFFFF" d="M64.3,13.2c4.6,3.3,8.9,6.7,13.2,10.1c-7,7.2-21.9,22.6-28.6,29.6l22.7,13.3c8.3-8.6,8-8.8,15.9-17.6
	s15.9-17.4,24-25.7c-6-6.2-15.5-16-21.3-22.3C89.9,0.3,89.8,0,89.6,0h-36c-1.1,1-2.3,2.1-3.4,3.2C55,6.6,59.7,9.8,64.3,13.2z"/>
<path fill="#FFFFFF" d="M65.1,74.2c-7-6.8-22.5-21.7-29.6-28.6c4.1-3.6,8.3-7.2,12.8-10.6s9-7,13.7-10.5c-3.8-3.4-7.7-6.8-11.4-10.2
	s-7.7-7-11.5-10.4C33.4,10.2,27.6,16.6,22,23C16.5,29.6,7.2,39.8,1.6,46.2c8.4,8.2,16.7,16.4,24.9,24.9s8,8.6,16.5,17.1L65.1,74.2z"
	/>
<path fill="#FFFFFF" d="M73.4,80.3c-3.7,3.5-7.4,6.8-11.1,10.3c-2.7,2.8-5.5,5.8-8.3,7.8h37.1v0.2C85.4,92.4,79.5,86.5,73.4,80.3z"
	/>
<path fill="#FFFFFF" d="M167,76.6c-3.4,4.8-6.7,9.2-10,13.8c-2,2.8-4.1,6-6.2,8h37.7v0.4c-4-3.7-7.2-7.4-10.7-11
	C174.1,84.1,170.4,80.4,167,76.6z"/>
<path fill="#FFFFFF" d="M103.8,97.7c0.4,0.3,0.7,0.7,1,0.7h36.7c-7.9-7-18.8-18.1-24.5-23.5L103.8,97.7z"/>
<path fill="#FFFFFF" d="M124.5,61.9c3.6,4.1,7.2,8.3,10.6,12.8c3.5,4.5,7,9,10.5,13.7c3.4-3.8,6.8-7.7,10.2-11.4
	c3.5-3.8,6.9-7.7,10.2-11.4c-6.4-5.8-12.7-11.5-19.1-17.1c-6.4-5.6-16.6-14.8-23.1-20.4C116,36.5,107.6,44.8,99.1,53
	S90.5,61,82,69.5l14.1,22.2C102.7,84.5,117.6,69.1,124.5,61.9z"/>
<path fill="#FFFFFF" d="M147,38.9c6.3-5.9,16.2-15.4,22.4-21.2S181.7,6.1,187.8,0c0,0,0,0-0.1,0h-37.3c-1.4,2-2.7,3.4-4.1,5.1
	C144.8,3.7,143,2,141,0h-36.7c7.8,7,8.3,7.4,16.7,15C130,22.9,138.5,30.8,147,38.9z"/>
</svg>
