<svg xmlns="http://www.w3.org/2000/svg" viewBox="1.6 0 186.9 98.8"><path fill="none" d="M150.5 0h-9.3c2 2 3.8 3.7 5.3 5.1 1.3-1.7 2.7-3.1 4-5.1z"/><path fill="#FFF" d="M64.3 13.2c4.6 3.3 8.9 6.7 13.2 10.1-7 7.2-21.9 22.6-28.6 29.6l22.7 13.3c8.3-8.6 8-8.8 15.9-17.6s15.9-17.4 24-25.7c-6-6.2-15.5-16-21.3-22.3-.3-.3-.4-.6-.6-.6h-36c-1.1 1-2.3 2.1-3.4 3.2 4.8 3.4 9.5 6.6 14.1 10z"/><path fill="#FFF" d="M65.1 74.2c-7-6.8-22.5-21.7-29.6-28.6 4.1-3.6 8.3-7.2 12.8-10.6s9-7 13.7-10.5c-3.8-3.4-7.7-6.8-11.4-10.2s-7.7-7-11.5-10.4C33.4 10.2 27.6 16.6 22 23 16.5 29.6 7.2 39.8 1.6 46.2c8.4 8.2 16.7 16.4 24.9 24.9s8 8.6 16.5 17.1l22.1-14zm8.3 6.1c-3.7 3.5-7.4 6.8-11.1 10.3-2.7 2.8-5.5 5.8-8.3 7.8h37.1v.2c-5.7-6.2-11.6-12.1-17.7-18.3zm93.6-3.7c-3.4 4.8-6.7 9.2-10 13.8-2 2.8-4.1 6-6.2 8h37.7v.4c-4-3.7-7.2-7.4-10.7-11-3.7-3.7-7.4-7.4-10.8-11.2zm-63.2 21.1c.4.3.7.7 1 .7h36.7c-7.9-7-18.8-18.1-24.5-23.5l-13.2 22.8z"/><path fill="#FFF" d="M124.5 61.9c3.6 4.1 7.2 8.3 10.6 12.8 3.5 4.5 7 9 10.5 13.7 3.4-3.8 6.8-7.7 10.2-11.4 3.5-3.8 6.9-7.7 10.2-11.4-6.4-5.8-12.7-11.5-19.1-17.1-6.4-5.6-16.6-14.8-23.1-20.4-7.8 8.4-16.2 16.7-24.7 24.9S90.5 61 82 69.5l14.1 22.2c6.6-7.2 21.5-22.6 28.4-29.8zm22.5-23c6.3-5.9 16.2-15.4 22.4-21.2S181.7 6.1 187.8 0h-37.4c-1.4 2-2.7 3.4-4.1 5.1C144.8 3.7 143 2 141 0h-36.7c7.8 7 8.3 7.4 16.7 15 9 7.9 17.5 15.8 26 23.9z"/></svg>